<?xml version="1.0" encoding="UTF-8" standalone="no"?>
<svg
   xmlns:dc="http://purl.org/dc/elements/1.1/"
   xmlns:cc="http://creativecommons.org/ns#"
   xmlns:rdf="http://www.w3.org/1999/02/22-rdf-syntax-ns#"
   xmlns:svg="http://www.w3.org/2000/svg"
   xmlns="http://www.w3.org/2000/svg"
   xmlns:sodipodi="http://sodipodi.sourceforge.net/DTD/sodipodi-0.dtd"
   xmlns:inkscape="http://www.inkscape.org/namespaces/inkscape"
   width="155"
   viewBox="0 0 155 155"
   height="155"
   version="1.0"
   id="svg19"
   sodipodi:docname="facebook.svg"
   inkscape:version="0.92.4 (5da689c313, 2019-01-14)">
  <metadata
     id="metadata23">
    <rdf:RDF>
      <cc:Work
         rdf:about="">
        <dc:format>image/svg+xml</dc:format>
        <dc:type
           rdf:resource="http://purl.org/dc/dcmitype/StillImage" />
        <dc:title></dc:title>
      </cc:Work>
    </rdf:RDF>
  </metadata>
  <sodipodi:namedview
     pagecolor="#ffffff"
     bordercolor="#666666"
     borderopacity="1"
     objecttolerance="10"
     gridtolerance="10"
     guidetolerance="10"
     inkscape:pageopacity="0"
     inkscape:pageshadow="2"
     inkscape:window-width="1920"
     inkscape:window-height="986"
     id="namedview21"
     showgrid="false"
     inkscape:zoom="0.58271605"
     inkscape:cx="710.21623"
     inkscape:cy="452.28968"
     inkscape:window-x="-11"
     inkscape:window-y="-11"
     inkscape:window-maximized="1"
     inkscape:current-layer="svg19" />
  <defs
     id="defs5">
    <clipPath
       id="a">
      <path
         d="m 349.46484,349.46484 h 111 v 111 h -111 z m 0,0"
         id="path2"
         inkscape:connector-curvature="0" />
    </clipPath>
  </defs>
  <path
     d="m 344.59322,-309.19331 h 119.09746 v 117.38136 H 344.59322 Z"
     id="path7"
     inkscape:connector-curvature="0"
     style="fill:#ffffff;stroke-width:0.12164228" />
  <path
     d="m 344.59322,-309.19331 h 119.09746 v 117.38136 H 344.59322 Z"
     id="path9"
     inkscape:connector-curvature="0"
     style="fill:#ffffff;stroke-width:0.12164227" />
  <path
     d="m 341.16102,-324 h 155 v 155 h -155 z"
     id="path11"
     inkscape:connector-curvature="0"
     style="fill:#ffffff;stroke-width:0.15946503" />
  <g
     clip-path="url(#a)"
     id="g15"
     transform="matrix(1.3963972,0,0,1.3963972,-487.99177,-487.99173)">
    <path
       d="m 366.11328,349.46484 h 77.70313 c 0.54296,0 1.08593,0.0274 1.6289,0.0781 0.54297,0.0547 1.08203,0.13672 1.61719,0.24219 0.53516,0.10546 1.0625,0.23828 1.58594,0.39453 0.51953,0.16015 1.03515,0.34375 1.53906,0.55078 0.50391,0.21094 0.99609,0.4414 1.47656,0.69922 0.48047,0.25781 0.94922,0.53906 1.40235,0.83984 0.45312,0.30469 0.89062,0.62891 1.3125,0.97266 0.41796,0.34765 0.82421,0.71484 1.21093,1.09765 0.38282,0.38672 0.75,0.78907 1.09375,1.21094 0.34766,0.42188 0.67188,0.85938 0.97657,1.3125 0.30078,0.45313 0.58203,0.92188 0.83984,1.40234 0.25391,0.48047 0.48828,0.97266 0.69531,1.47657 0.21094,0.5039 0.39453,1.01562 0.55078,1.53906 0.16016,0.52344 0.29297,1.05078 0.39844,1.58594 0.10547,0.53515 0.1875,1.07422 0.23828,1.61718 0.0547,0.53907 0.082,1.08594 0.082,1.62891 v 77.70313 c 0,0.54296 -0.0273,1.08593 -0.082,1.6289 -0.0508,0.54297 -0.13281,1.08203 -0.23828,1.61719 -0.10547,0.53516 -0.23828,1.0625 -0.39844,1.58594 -0.15625,0.51953 -0.33984,1.03515 -0.55078,1.53906 -0.20703,0.50391 -0.4414,0.99609 -0.69531,1.47656 -0.25781,0.48047 -0.53906,0.94922 -0.83984,1.40235 -0.30469,0.45312 -0.62891,0.89062 -0.97657,1.3125 -0.34375,0.41796 -0.71093,0.82421 -1.09375,1.21093 -0.38672,0.38282 -0.79297,0.75 -1.21093,1.09375 -0.42188,0.34766 -0.85938,0.67188 -1.3125,0.97657 -0.45313,0.30078 -0.92188,0.58203 -1.40235,0.83984 -0.48047,0.25391 -0.97265,0.48828 -1.47656,0.69531 -0.50391,0.21094 -1.01953,0.39453 -1.53906,0.55078 -0.52344,0.16016 -1.05078,0.29297 -1.58594,0.39844 -0.53516,0.10547 -1.07422,0.1875 -1.61719,0.23828 -0.54297,0.0547 -1.08594,0.082 -1.6289,0.082 h -77.70313 c -0.54297,0 -1.08984,-0.0273 -1.62891,-0.082 -0.54296,-0.0508 -1.08203,-0.13281 -1.61718,-0.23828 -0.53516,-0.10547 -1.0625,-0.23828 -1.58594,-0.39844 -0.52344,-0.15625 -1.03516,-0.33984 -1.53906,-0.55078 -0.50391,-0.20703 -0.9961,-0.4414 -1.47657,-0.69531 -0.48046,-0.25781 -0.94921,-0.53906 -1.40234,-0.83984 -0.45312,-0.30469 -0.89062,-0.62891 -1.3125,-0.97657 -0.42187,-0.34375 -0.82422,-0.71093 -1.21094,-1.09375 -0.38281,-0.38672 -0.75,-0.79297 -1.09765,-1.21093 -0.34375,-0.42188 -0.66797,-0.85938 -0.97266,-1.3125 -0.30078,-0.45313 -0.58203,-0.92188 -0.83984,-1.40235 -0.25782,-0.48047 -0.48828,-0.97265 -0.69922,-1.47656 -0.20703,-0.50391 -0.39063,-1.01953 -0.55078,-1.53906 -0.15625,-0.52344 -0.28907,-1.05078 -0.39453,-1.58594 -0.10547,-0.53516 -0.1875,-1.07422 -0.24219,-1.61719 -0.0508,-0.54297 -0.0781,-1.08594 -0.0781,-1.6289 v -77.70313 c 0,-0.54297 0.0274,-1.08984 0.0781,-1.62891 0.0547,-0.54296 0.13672,-1.08203 0.24219,-1.61718 0.10546,-0.53516 0.23828,-1.0625 0.39453,-1.58594 0.16015,-0.52344 0.34375,-1.03516 0.55078,-1.53906 0.21094,-0.50391 0.4414,-0.9961 0.69922,-1.47657 0.25781,-0.48046 0.53906,-0.94921 0.83984,-1.40234 0.30469,-0.45312 0.62891,-0.89062 0.97266,-1.3125 0.34765,-0.42187 0.71484,-0.82422 1.09765,-1.21094 0.38672,-0.38281 0.78907,-0.75 1.21094,-1.09765 0.42188,-0.34375 0.85938,-0.66797 1.3125,-0.97266 0.45313,-0.30078 0.92188,-0.58203 1.40234,-0.83984 0.48047,-0.25782 0.97266,-0.48828 1.47657,-0.69922 0.5039,-0.20703 1.01562,-0.39063 1.53906,-0.55078 0.52344,-0.15625 1.05078,-0.28907 1.58594,-0.39453 0.53515,-0.10547 1.07422,-0.1875 1.61718,-0.24219 0.53907,-0.0508 1.08594,-0.0781 1.62891,-0.0781 z m 0,0"
       id="path13"
       inkscape:connector-curvature="0"
       style="fill:#545454" />
  </g>
  <path
     d="M 86.882014,138.04694 V 47.526581 c 0,-6.3547 1.81641,-10.59298 10.59845,-10.59298 h 11.503906 v -19.075 c -2.12186,-0.30001 -8.78203,-0.90548 -16.653126,-0.90548 -16.34766,0 -27.54613,9.98751 -27.54613,28.45704 V 138.04694 M 108.07343,61.152361 H 46.015584 v 21.79689 h 59.335976"
     id="path17"
     inkscape:connector-curvature="0"
     style="fill:#ffffff;stroke-width:1.39639711" />
</svg>
