<?xml version="1.0" encoding="UTF-8" standalone="no"?>
<svg
   xmlns:dc="http://purl.org/dc/elements/1.1/"
   xmlns:cc="http://creativecommons.org/ns#"
   xmlns:rdf="http://www.w3.org/1999/02/22-rdf-syntax-ns#"
   xmlns:svg="http://www.w3.org/2000/svg"
   xmlns="http://www.w3.org/2000/svg"
   xmlns:xlink="http://www.w3.org/1999/xlink"
   xmlns:sodipodi="http://sodipodi.sourceforge.net/DTD/sodipodi-0.dtd"
   xmlns:inkscape="http://www.inkscape.org/namespaces/inkscape"
   width="155"
   viewBox="0 0 155 155"
   height="155"
   version="1.0"
   id="svg61"
   sodipodi:docname="instagram.svg"
   inkscape:version="0.92.4 (5da689c313, 2019-01-14)">
  <metadata
     id="metadata65">
    <rdf:RDF>
      <cc:Work
         rdf:about="">
        <dc:format>image/svg+xml</dc:format>
        <dc:type
           rdf:resource="http://purl.org/dc/dcmitype/StillImage" />
        <dc:title></dc:title>
      </cc:Work>
    </rdf:RDF>
  </metadata>
  <sodipodi:namedview
     pagecolor="#ffffff"
     bordercolor="#666666"
     borderopacity="1"
     objecttolerance="10"
     gridtolerance="10"
     guidetolerance="10"
     inkscape:pageopacity="0"
     inkscape:pageshadow="2"
     inkscape:window-width="1920"
     inkscape:window-height="986"
     id="namedview63"
     showgrid="false"
     inkscape:zoom="0.58271605"
     inkscape:cx="702.83117"
     inkscape:cy="378.39707"
     inkscape:window-x="-11"
     inkscape:window-y="-11"
     inkscape:window-maximized="1"
     inkscape:current-layer="svg61" />
  <defs
     id="defs35">
    <clipPath
       id="a">
      <path
         d="m 377,377 h 57 v 56 h -57 z m 0,0"
         id="path2"
         inkscape:connector-curvature="0" />
    </clipPath>
    <clipPath
       id="b">
      <path
         d="m 405.04687,377.01953 c -0.96093,0 -1.91406,0.0469 -2.85156,0.14453 -0.9414,0.0937 -1.86328,0.23828 -2.77344,0.42578 -0.91015,0.1875 -1.80468,0.41797 -2.67968,0.69141 l -2.57032,0.94141 -2.44531,1.18359 -2.30859,1.40625 -2.16016,1.61328 -1.98828,1.80859 -1.8125,1.98829 -1.61328,2.15234 -1.40625,2.30859 -1.18359,2.44532 c -0.35547,0.83593 -0.67188,1.6914 -0.94532,2.5664 -0.27343,0.875 -0.5039,1.76953 -0.6914,2.67578 -0.1875,0.91016 -0.33203,1.83203 -0.42578,2.76953 -0.0977,0.9375 -0.14454,1.89063 -0.14454,2.85157 0,0.96093 0.0469,1.91406 0.14454,2.85156 0.0937,0.92969 0.23437,1.85547 0.42578,2.76953 0.1875,0.91406 0.41797,1.80469 0.6914,2.67969 0.27344,0.875 0.58985,1.73047 0.94532,2.5664 l 1.18359,2.44532 1.40625,2.30468 1.61328,2.15625 1.8125,1.98829 1.98828,1.80859 2.16016,1.61328 2.30859,1.40625 2.44531,1.17969 2.57032,0.94531 2.67968,0.69141 c 0.91407,0.1875 1.83985,0.32812 2.77344,0.42578 0.94531,0.0976 1.89453,0.14453 2.85156,0.14453 0.96485,0 1.91797,-0.0508 2.85547,-0.14453 0.92969,-0.0977 1.85547,-0.23828 2.77344,-0.42578 l 2.67578,-0.69141 2.57031,-0.94531 2.44922,-1.17969 2.3086,-1.40625 2.15625,-1.61328 1.99218,-1.80859 1.8086,-1.98829 1.61719,-2.15625 1.40625,-2.30468 1.17968,-2.44532 0.94532,-2.5664 c 0.27343,-0.875 0.50781,-1.76953 0.69531,-2.67969 l 0.42578,-2.76953 c 0.0937,-0.9375 0.14453,-1.89063 0.14453,-2.85156 0,-0.96094 -0.0508,-1.91407 -0.14453,-2.85157 -0.0977,-0.92968 -0.23828,-1.85156 -0.42578,-2.76953 -0.1875,-0.91015 -0.42188,-1.80078 -0.69531,-2.67578 l -0.94532,-2.57031 -1.17968,-2.44141 -1.40625,-2.30859 -1.61719,-2.15234 -1.8086,-1.99219 -1.99218,-1.80469 -2.15625,-1.61719 -2.3086,-1.40234 -2.44922,-1.18359 -2.57031,-0.94141 -2.67578,-0.69141 -2.77344,-0.42578 c -0.94922,-0.0976 -1.89843,-0.14453 -2.85547,-0.14453 z m 0,9.65625 c 0.63672,0 1.26563,0.0312 1.88282,0.0937 l 1.82422,0.27344 1.76171,0.44922 1.6875,0.61328 1.60547,0.76953 1.50782,0.91406 1.41015,1.05078 1.30078,1.17969 1.17969,1.29688 1.05469,1.41015 0.91406,1.51172 0.76953,1.60156 c 0.23047,0.54688 0.4336,1.10938 0.61328,1.6875 0.17578,0.57422 0.32813,1.16016 0.44922,1.75782 0.1211,0.60156 0.21094,1.20703 0.27344,1.82812 l 0.0937,1.88281 c 0,0.63672 -0.0312,1.26172 -0.0937,1.88282 -0.0625,0.61718 -0.15234,1.22656 -0.27344,1.82421 -0.125,0.59766 -0.27344,1.1875 -0.44922,1.76172 l -0.61328,1.6836 -0.76953,1.60547 -0.91406,1.50781 -1.05469,1.41015 -1.17969,1.30079 -1.30078,1.17968 -1.41015,1.05078 -1.50782,0.91407 -1.60547,0.76562 -1.6875,0.61328 -1.76171,0.44922 -1.82422,0.27735 c -0.6211,0.0625 -1.25,0.0937 -1.88282,0.0937 -0.6289,0 -1.25781,-0.0312 -1.88281,-0.0937 l -1.82422,-0.27735 c -0.60156,-0.12109 -1.1875,-0.26953 -1.76172,-0.44922 l -1.6875,-0.61328 -1.60546,-0.76562 -1.50782,-0.91407 -1.41015,-1.05078 -1.30078,-1.17968 -1.17969,-1.30079 -1.05469,-1.41015 -0.91406,-1.50781 -0.76953,-1.60547 -0.61328,-1.6836 -0.44922,-1.76172 -0.27344,-1.82421 c -0.0625,-0.625 -0.0937,-1.25391 -0.0937,-1.88282 0,-0.6289 0.0312,-1.25781 0.0937,-1.88281 0.0625,-0.62109 0.15234,-1.23047 0.27344,-1.82812 0.12109,-0.59375 0.27343,-1.17969 0.44922,-1.75782 l 0.61718,-1.6875 0.76563,-1.60156 0.91406,-1.51172 1.05469,-1.41015 1.17969,-1.29688 1.30078,-1.17969 1.41015,-1.05078 1.50782,-0.91406 1.60546,-0.76953 c 0.55079,-0.23047 1.11329,-0.4336 1.6875,-0.61328 l 1.76172,-0.44922 c 0.59766,-0.1211 1.20703,-0.21094 1.82422,-0.27344 0.625,-0.0625 1.25391,-0.0937 1.88281,-0.0937 z m 0,0"
         id="path5"
         inkscape:connector-curvature="0" />
    </clipPath>
    <clipPath
       id="d">
      <path
         d="m 427,369 h 14 v 14 h -14 z m 0,0"
         id="path8"
         inkscape:connector-curvature="0" />
    </clipPath>
    <clipPath
       id="e">
      <path
         d="m 434.1875,369.05859 c -0.22266,0 -0.44531,0.0117 -0.66797,0.0352 -0.22266,0.0234 -0.44141,0.0547 -0.66016,0.10156 -0.21484,0.043 -0.43359,0.0977 -0.64453,0.16406 -0.21093,0.0664 -0.42187,0.14454 -0.625,0.23047 -0.20703,0.0859 -0.40625,0.1836 -0.60156,0.29297 -0.19531,0.10547 -0.38281,0.22266 -0.56641,0.35156 -0.18359,0.125 -0.36328,0.26172 -0.53125,0.40625 -0.17187,0.14063 -0.33203,0.29297 -0.48828,0.45704 -0.15625,0.16015 -0.30078,0.32812 -0.4414,0.5039 -0.13672,0.17578 -0.26563,0.35547 -0.38672,0.54297 -0.1211,0.19141 -0.23047,0.38281 -0.33203,0.58203 -0.10157,0.19922 -0.19141,0.40625 -0.27344,0.61328 -0.0781,0.20703 -0.14844,0.42188 -0.20703,0.63672 -0.0625,0.21485 -0.10938,0.4336 -0.14844,0.65625 -0.0352,0.21875 -0.0625,0.44141 -0.0781,0.66406 -0.0117,0.16016 -0.0195,0.31641 -0.0195,0.47657 0,0.22265 0.0117,0.44531 0.0352,0.66797 0.0234,0.22265 0.0547,0.44531 0.0977,0.66406 0.0469,0.21875 0.10156,0.4375 0.16797,0.64844 0.0664,0.21484 0.14062,0.42578 0.22656,0.63281 0.0859,0.20703 0.18359,0.40625 0.28906,0.60547 0.10938,0.19531 0.22656,0.38672 0.35156,0.57031 0.125,0.18359 0.25782,0.36328 0.40235,0.53516 0.14453,0.17187 0.29297,0.33203 0.45312,0.48828 0.16016,0.15625 0.32813,0.30468 0.5,0.44531 0.17578,0.13672 0.35547,0.26953 0.54297,0.39062 0.1875,0.1211 0.38281,0.23047 0.57813,0.33204 0.19921,0.10156 0.40234,0.19531 0.60937,0.27343 0.20703,0.082 0.41797,0.15235 0.63281,0.21485 0.21485,0.0586 0.42969,0.10547 0.65235,0.14453 0.21875,0.0391 0.4375,0.0664 0.66015,0.082 0.15625,0.0117 0.3125,0.0156 0.47266,0.0156 0.22266,0 0.44141,-0.0117 0.66406,-0.0312 0.22266,-0.0234 0.44141,-0.0586 0.66016,-0.10156 0.21875,-0.043 0.43359,-0.10156 0.64453,-0.16406 0.21484,-0.0664 0.42187,-0.14453 0.625,-0.23047 0.20703,-0.0898 0.40625,-0.1875 0.60156,-0.29297 0.19531,-0.10937 0.38672,-0.22656 0.57031,-0.35156 0.1836,-0.125 0.35938,-0.26172 0.52735,-0.40625 0.17187,-0.14453 0.33594,-0.29688 0.48828,-0.45703 0.15625,-0.16016 0.30469,-0.32813 0.44141,-0.50391 0.13671,-0.17578 0.26562,-0.35547 0.38671,-0.54687 0.1211,-0.1875 0.23047,-0.38282 0.33204,-0.58203 0.10156,-0.19922 0.1914,-0.40235 0.27343,-0.60938 0.0781,-0.21094 0.14844,-0.42187 0.21094,-0.63672 0.0586,-0.21875 0.10547,-0.4375 0.14453,-0.65625 0.0391,-0.22265 0.0625,-0.4414 0.082,-0.66797 0.008,-0.15625 0.0156,-0.3164 0.0156,-0.47265 0,-0.22266 -0.0117,-0.44922 -0.0352,-0.67188 -0.0195,-0.22265 -0.0547,-0.4414 -0.0976,-0.66015 -0.0469,-0.22266 -0.10157,-0.4375 -0.16407,-0.65235 -0.0664,-0.21484 -0.14453,-0.42187 -0.23047,-0.6289 -0.0859,-0.20704 -0.18359,-0.41016 -0.28906,-0.60547 -0.10937,-0.19532 -0.22265,-0.38672 -0.34765,-0.57032 -0.12891,-0.1875 -0.26172,-0.36328 -0.40625,-0.53515 -0.14063,-0.17188 -0.29297,-0.33594 -0.45313,-0.49219 -0.16016,-0.15625 -0.32812,-0.30469 -0.5,-0.44141 -0.17578,-0.14062 -0.35547,-0.26953 -0.54297,-0.39062 -0.1875,-0.12109 -0.3789,-0.23438 -0.57812,-0.33594 -0.19922,-0.10156 -0.40235,-0.1914 -0.60938,-0.27344 -0.20703,-0.082 -0.41797,-0.15234 -0.63281,-0.21093 -0.21484,-0.0586 -0.42969,-0.10938 -0.64844,-0.14844 -0.21875,-0.0352 -0.4414,-0.0625 -0.66406,-0.0781 -0.15625,-0.0117 -0.3125,-0.0195 -0.46875,-0.0195 z m 0,0"
         id="path11"
         inkscape:connector-curvature="0" />
    </clipPath>
    <clipPath
       id="g">
      <path
         d="m 350.25,350.25 h 109.5 v 109.5 h -109.5 z m 0,0"
         id="path14"
         inkscape:connector-curvature="0" />
    </clipPath>
    <clipPath
       id="h">
      <path
         d="m 399.73828,350.26562 c -3.04687,-0.008 -5.76562,0.008 -8.20703,0.0391 l -6.54297,0.17578 c -1.94141,0.0859 -3.65625,0.19531 -5.19141,0.33594 -0.76953,0.0742 -1.49609,0.15234 -2.18359,0.23828 -0.65234,0.082 -1.30469,0.17968 -1.95703,0.28906 -0.61719,0.10547 -1.20703,0.21875 -1.76953,0.34375 -0.5625,0.12109 -1.10156,0.25391 -1.6211,0.39844 -0.50781,0.14062 -1.01171,0.29297 -1.50781,0.46093 -0.49219,0.16407 -0.96875,0.33985 -1.4375,0.52735 -0.94531,0.37109 -1.86328,0.79297 -2.80859,1.26172 -0.73047,0.35937 -1.40235,0.72656 -2.03906,1.11328 -0.64063,0.38672 -1.2461,0.79687 -1.83985,1.24219 -0.60937,0.46093 -1.19922,0.94921 -1.76172,1.46875 -0.58984,0.53515 -1.19531,1.125 -1.82031,1.78906 -0.78516,0.82422 -1.46875,1.59375 -2.07812,2.34765 -0.30079,0.37891 -0.58594,0.75 -0.85547,1.125 -0.26172,0.3711 -0.51563,0.75 -0.75782,1.13672 -0.23828,0.38282 -0.46484,0.76953 -0.67968,1.17188 -0.21875,0.40625 -0.42578,0.82031 -0.6211,1.24219 -0.40234,0.85546 -0.77343,1.77734 -1.14453,2.80859 -0.27734,0.76172 -0.52344,1.53516 -0.74219,2.31641 -0.22265,0.79687 -0.41796,1.63281 -0.59375,2.53515 -0.17578,0.90235 -0.33203,1.8711 -0.46484,2.94531 -0.14453,1.17579 -0.26172,2.35547 -0.34766,3.53907 -0.10156,1.30078 -0.17968,2.73047 -0.24609,4.32422 l -0.16016,5.29296 -0.0859,6.45313 -0.0234,7.80078 0.0742,11.34375 0.22265,8.59375 0.17188,3.35938 0.21875,2.78125 c 0.0664,0.75 0.15625,1.49609 0.25781,2.24218 0.0937,0.66407 0.19531,1.24219 0.30469,1.74219 0.22266,1.02344 0.48437,2.03125 0.78906,3.03125 0.28906,0.95703 0.6211,1.89844 0.99219,2.82813 0.36719,0.90625 0.76562,1.78515 1.19922,2.6289 0.4375,0.84375 0.90625,1.65235 1.41015,2.42969 0.50782,0.78125 1.04688,1.52734 1.625,2.24219 0.57422,0.71484 1.1875,1.39843 1.83594,2.04687 0.64453,0.65235 1.32813,1.27344 2.05078,1.86328 0.72657,0.59766 1.48438,1.16016 2.26953,1.6836 0.72657,0.48437 1.44532,0.92968 2.17188,1.33984 0.72266,0.40625 1.45312,0.77734 2.20703,1.11328 0.75,0.33985 1.51953,0.64063 2.32422,0.91406 0.80469,0.27344 1.64453,0.51563 2.53125,0.73047 0.88672,0.21875 1.82422,0.40625 2.81641,0.57032 0.99218,0.16406 2.05468,0.30859 3.1875,0.42968 1.13281,0.1211 2.34375,0.22266 3.64453,0.30469 1.29687,0.0859 2.6875,0.15234 4.17968,0.20703 2.30469,0.082 5.79688,0.13281 9.82032,0.14844 l 13.03125,-0.0234 12.33984,-0.17578 4.69141,-0.12891 3.05468,-0.16015 c 0.65625,-0.0508 1.29688,-0.11328 1.91797,-0.1875 0.6211,-0.0742 1.23047,-0.16016 1.82422,-0.25391 0.59766,-0.0976 1.17969,-0.20703 1.75,-0.32422 0.5625,-0.11718 1.125,-0.25 1.6836,-0.39453 0.55468,-0.14062 1.09765,-0.30078 1.63671,-0.46875 0.54297,-0.16797 1.07422,-0.35156 1.60547,-0.55078 0.53516,-0.19531 1.0625,-0.40625 1.58594,-0.62891 0.52734,-0.22656 1.05469,-0.46484 1.58203,-0.71875 0.8125,-0.39453 1.46485,-0.71875 2.03906,-1.03515 0.53907,-0.29688 1.0586,-0.62891 1.55469,-0.99219 0.49219,-0.35937 0.97656,-0.76953 1.53906,-1.28906 0.5625,-0.51563 1.19532,-1.14063 1.98438,-1.92578 0.69141,-0.69141 1.27734,-1.29297 1.77734,-1.83985 0.50391,-0.54687 0.92969,-1.03906 1.30078,-1.51562 0.35547,-0.44922 0.6836,-0.91797 0.98829,-1.40235 0.29687,-0.47265 0.57031,-0.96484 0.85156,-1.51171 0.41797,-0.82032 0.79297,-1.58204 1.125,-2.3125 0.32812,-0.70704 0.62109,-1.42969 0.89062,-2.16016 0.26563,-0.72266 0.49219,-1.46094 0.6836,-2.20703 0.19922,-0.76953 0.36718,-1.57813 0.51562,-2.46875 0.14844,-0.89063 0.27344,-1.85938 0.37891,-2.9375 0.10937,-1.08203 0.20312,-2.27735 0.28125,-3.6211 l 0.21484,-4.5039 0.1836,-5.60547 0.13281,-6.24609 0.0508,-6.52735 -0.11719,-12.82422 -0.16015,-5.74218 -0.21094,-4.9336 -0.26953,-3.84375 c -0.0937,-1.07031 -0.19922,-1.91015 -0.3086,-2.48047 -0.125,-0.6289 -0.26172,-1.25781 -0.41406,-1.8789 -0.14453,-0.60938 -0.30859,-1.21094 -0.48437,-1.8086 -0.17188,-0.58203 -0.35938,-1.16015 -0.5625,-1.73437 -0.19922,-0.56641 -0.41016,-1.1211 -0.62891,-1.66406 -0.22266,-0.54297 -0.46094,-1.07422 -0.71094,-1.59375 -0.25,-0.51954 -0.50781,-1.02344 -0.78515,-1.51954 -0.27344,-0.49218 -0.5586,-0.97656 -0.85547,-1.44531 -0.30078,-0.47265 -0.60938,-0.92969 -0.9336,-1.375 -0.32031,-0.44531 -0.65625,-0.8789 -1.00781,-1.30469 -0.34766,-0.42187 -0.70703,-0.83203 -1.08203,-1.23046 -0.37109,-0.39844 -0.75781,-0.78516 -1.15234,-1.15625 -0.39844,-0.375 -0.8086,-0.73829 -1.23047,-1.08594 -0.42578,-0.35156 -0.85938,-0.69141 -1.30469,-1.01563 -0.44922,-0.32812 -0.90625,-0.64062 -1.375,-0.9414 -0.47656,-0.30469 -0.96094,-0.59375 -1.45313,-0.86719 -0.5,-0.28125 -1.01171,-0.54688 -1.52734,-0.79688 -0.85547,-0.41406 -1.64844,-0.78515 -2.42578,-1.11328 -0.76563,-0.32422 -1.54297,-0.61328 -2.33594,-0.86328 -0.79687,-0.2539 -1.625,-0.46875 -2.53515,-0.65234 -0.91407,-0.1875 -1.90625,-0.33985 -3.03516,-0.47266 -1.125,-0.13281 -2.37891,-0.23828 -3.82031,-0.32422 -1.4375,-0.0898 -3.05078,-0.16015 -4.89844,-0.21484 l -6.27344,-0.14063 -7.9414,-0.0937 -10.16797,-0.0625 z m 5.28125,9.64454 14.66406,0.0859 5.53125,0.10547 c 1.52344,0.043 2.6875,0.0937 3.36719,0.15235 0.88672,0.0742 1.73438,0.16796 2.54297,0.28125 0.77344,0.10546 1.54687,0.23828 2.3125,0.39843 0.73828,0.15235 1.44141,0.32813 2.11328,0.52735 0.67188,0.19922 1.31641,0.41797 1.92969,0.66406 0.61719,0.24609 1.20703,0.51562 1.77344,0.8125 0.5625,0.29297 1.10937,0.61328 1.64062,0.96484 0.52344,0.34766 1.03125,0.72657 1.52344,1.12891 0.49219,0.40625 0.97265,0.83984 1.4375,1.30469 0.49219,0.49218 0.94531,0.98828 1.36328,1.5039 0.41797,0.51172 0.80469,1.04688 1.15625,1.60547 0.35547,0.56641 0.67578,1.15625 0.96094,1.76172 0.29297,0.61719 0.55078,1.26953 0.78515,1.96094 0.23438,0.69531 0.44532,1.43359 0.62891,2.21875 0.19531,0.83594 0.35547,1.67578 0.48828,2.52344 0.14063,0.89843 0.25781,1.85546 0.35938,2.88281 0.10156,1.02344 0.1875,2.11719 0.25781,3.28906 0.0547,0.9375 0.10156,2.17578 0.14453,3.63672 l 0.10156,4.98828 0.0781,12.21484 -0.0899,12.20313 -0.10547,4.97266 -0.14843,3.61718 c -0.10157,1.69141 -0.21094,3.11328 -0.33985,4.35547 -0.0664,0.61719 -0.13672,1.19141 -0.21093,1.73047 -0.0742,0.50781 -0.16016,1.01172 -0.26172,1.51563 -0.0899,0.46093 -0.19532,0.91406 -0.31641,1.36718 -0.11719,0.4336 -0.24609,0.85938 -0.39062,1.28516 -0.14454,0.42578 -0.30079,0.84375 -0.47266,1.26172 -0.17969,0.4375 -0.37109,0.87109 -0.57031,1.30078 -0.17578,0.38672 -0.36328,0.75781 -0.5625,1.125 -0.19532,0.35937 -0.40235,0.71094 -0.6211,1.05859 -0.21875,0.34375 -0.44531,0.67578 -0.68359,0.9961 -0.23828,0.32422 -0.48828,0.63672 -0.74609,0.9375 -0.26172,0.30468 -0.53125,0.59375 -0.8125,0.8789 -0.27735,0.28125 -0.57032,0.55469 -0.8711,0.81641 -0.30078,0.26562 -0.61328,0.51562 -0.9375,0.76172 -0.32422,0.24219 -0.66015,0.47656 -1.00781,0.69922 -0.34375,0.22265 -0.70313,0.4375 -1.07031,0.64453 -0.36719,0.20312 -0.75,0.39844 -1.14063,0.58594 -0.39844,0.1875 -0.80078,0.36718 -1.21094,0.53125 -0.42187,0.16796 -0.84765,0.32812 -1.27734,0.47656 -0.87891,0.29687 -1.80469,0.55859 -2.77734,0.78515 -1.01563,0.23438 -2.03907,0.42579 -3.07032,0.57422 -0.39453,0.0586 -1.30859,0.11328 -2.61328,0.16407 l -4.97265,0.13671 -14.09766,0.1836 -14.75781,0.0234 -5.79297,-0.0625 -3.76563,-0.11719 -2.77343,-0.19531 c -0.85938,-0.0703 -1.66407,-0.15235 -2.41407,-0.24219 -0.75,-0.0937 -1.44921,-0.19531 -2.10546,-0.3086 -0.625,-0.10937 -1.24219,-0.23828 -1.85938,-0.38671 -0.55859,-0.13672 -1.11328,-0.29688 -1.66016,-0.47657 -0.53125,-0.17578 -1.03515,-0.36718 -1.52734,-0.58203 -0.48828,-0.21094 -0.96484,-0.44531 -1.4375,-0.69922 -0.47266,-0.2539 -0.94141,-0.52734 -1.41406,-0.82812 -0.35547,-0.22656 -0.70313,-0.45703 -1.03516,-0.69922 -0.33203,-0.24219 -0.65234,-0.48438 -0.96094,-0.73828 -0.30859,-0.25391 -0.60546,-0.51563 -0.89062,-0.78516 -0.28516,-0.26953 -0.55859,-0.54687 -0.82031,-0.83594 -0.26563,-0.28515 -0.51563,-0.58203 -0.75782,-0.88671 -0.24218,-0.3086 -0.47265,-0.625 -0.6914,-0.94922 -0.22266,-0.32813 -0.4336,-0.66407 -0.62891,-1.00782 -0.20312,-0.34765 -0.39062,-0.70703 -0.57422,-1.07812 -0.18359,-0.37891 -0.35156,-0.76172 -0.51172,-1.14844 -0.16015,-0.39844 -0.3164,-0.80469 -0.45703,-1.22656 -0.28906,-0.84375 -0.54297,-1.74219 -0.76172,-2.69922 -0.21875,-0.95703 -0.40625,-1.97656 -0.5664,-3.05859 -0.15625,-1.08594 -0.28516,-2.23438 -0.38672,-3.45703 -0.0742,-0.89844 -0.13281,-2.30079 -0.17969,-4.06641 l -0.0976,-6.28906 0.0351,-16.03125 0.27735,-15.31641 0.21093,-5.39453 0.1211,-1.78516 c 0.0391,-0.47656 0.082,-0.82812 0.125,-1.04297 0.14453,-0.69531 0.29297,-1.34375 0.4414,-1.95312 0.14063,-0.57031 0.29688,-1.14063 0.46875,-1.70313 0.16407,-0.53515 0.33594,-1.03125 0.51953,-1.5039 0.17969,-0.45703 0.375,-0.90625 0.59375,-1.34766 0.21485,-0.42969 0.44141,-0.83984 0.6875,-1.23828 0.25,-0.39844 0.51954,-0.78516 0.8086,-1.16797 0.29297,-0.38672 0.60547,-0.76562 0.94922,-1.15234 0.34375,-0.38281 0.71093,-0.77344 1.11328,-1.17578 0.46484,-0.46875 0.95312,-0.91797 1.45703,-1.34766 0.47656,-0.40625 0.97266,-0.78516 1.48437,-1.14062 0.50782,-0.34766 1.02735,-0.66016 1.56641,-0.94922 0.54297,-0.28516 1.10547,-0.54688 1.69531,-0.77735 0.58985,-0.23437 1.21094,-0.44531 1.8711,-0.63281 0.6914,-0.19531 1.38672,-0.35937 2.09375,-0.49609 0.73828,-0.14453 1.52734,-0.27344 2.36718,-0.38282 0.83985,-0.10937 1.73438,-0.20703 2.6875,-0.28906 0.66797,-0.0547 1.81641,-0.10937 3.32813,-0.15234 L 390.37891,360 Z m 0,0"
         id="path17"
         inkscape:connector-curvature="0" />
    </clipPath>
    <radialGradient
       gradientTransform="matrix(1.22738,-0.20608,0.12532,0.74498,89.284,267.604)"
       gradientUnits="userSpaceOnUse"
       xlink:type="simple"
       r="185.948"
       xlink:actuate="onLoad"
       cx="193.955"
       id="c"
       cy="322.022"
       xlink:show="other"
       fx="193.955"
       fy="322.022">
      <stop
         stop-color="#545454"
         offset="0"
         id="stop20" />
      <stop
         stop-color="#545454"
         offset="1"
         id="stop22" />
    </radialGradient>
    <radialGradient
       gradientTransform="matrix(1.22738,-0.20608,0.12532,0.74498,89.284,267.604)"
       gradientUnits="userSpaceOnUse"
       xlink:type="simple"
       r="185.948"
       xlink:actuate="onLoad"
       cx="193.955"
       id="f"
       cy="322.022"
       xlink:show="other"
       fx="193.955"
       fy="322.022">
      <stop
         stop-color="#545454"
         offset="0"
         id="stop25" />
      <stop
         stop-color="#545454"
         offset="1"
         id="stop27" />
    </radialGradient>
    <radialGradient
       gradientTransform="matrix(1.22738,-0.20608,0.12532,0.74498,89.284,267.604)"
       gradientUnits="userSpaceOnUse"
       xlink:type="simple"
       r="185.948"
       xlink:actuate="onLoad"
       cx="193.955"
       id="i"
       cy="322.022"
       xlink:show="other"
       fx="193.955"
       fy="322.022">
      <stop
         stop-color="#545454"
         offset="0"
         id="stop30" />
      <stop
         stop-color="#545454"
         offset="1"
         id="stop32" />
    </radialGradient>
  </defs>
  <g
     clip-path="url(#a)"
     id="g47"
     transform="matrix(1.415526,0,0,1.4181289,-495.78808,-496.71891)">
    <g
       clip-path="url(#b)"
       id="g45">
      <path
         d="m 367.89062,378.55469 10.69141,63.55859 63.62109,-10.67969 -10.6914,-63.5625 z m 0,0"
         id="path43"
         inkscape:connector-curvature="0"
         style="fill:url(#c)" />
    </g>
  </g>
  <g
     clip-path="url(#d)"
     id="g53"
     transform="matrix(1.415526,0,0,1.4181289,-495.78808,-496.71891)">
    <g
       clip-path="url(#e)"
       id="g51">
      <path
         d="m 425.32031,369.42969 2.5625,15.23437 15.16797,-2.54687 -2.5625,-15.23438 z m 0,0"
         id="path49"
         inkscape:connector-curvature="0"
         style="fill:url(#f)" />
    </g>
  </g>
  <g
     clip-path="url(#g)"
     id="g59"
     transform="matrix(1.415526,0,0,1.4181289,-495.78808,-496.71891)">
    <g
       clip-path="url(#h)"
       id="g57">
      <path
         d="m 332.36719,353.26172 20.89062,124.18359 124.375,-20.88281 -20.89062,-124.18359 z m 0,0"
         id="path55"
         inkscape:connector-curvature="0"
         style="fill:url(#i)" />
    </g>
  </g>
</svg>
