<?xml version="1.0" encoding="UTF-8" standalone="no"?>
<svg
   xmlns:dc="http://purl.org/dc/elements/1.1/"
   xmlns:cc="http://creativecommons.org/ns#"
   xmlns:rdf="http://www.w3.org/1999/02/22-rdf-syntax-ns#"
   xmlns:svg="http://www.w3.org/2000/svg"
   xmlns="http://www.w3.org/2000/svg"
   xmlns:sodipodi="http://sodipodi.sourceforge.net/DTD/sodipodi-0.dtd"
   xmlns:inkscape="http://www.inkscape.org/namespaces/inkscape"
   width="155"
   viewBox="0 0 155 155"
   height="155"
   version="1.0"
   id="svg19"
   sodipodi:docname="youtube.svg"
   inkscape:version="0.92.4 (5da689c313, 2019-01-14)">
  <metadata
     id="metadata23">
    <rdf:RDF>
      <cc:Work
         rdf:about="">
        <dc:format>image/svg+xml</dc:format>
        <dc:type
           rdf:resource="http://purl.org/dc/dcmitype/StillImage" />
        <dc:title></dc:title>
      </cc:Work>
    </rdf:RDF>
  </metadata>
  <sodipodi:namedview
     pagecolor="#ffffff"
     bordercolor="#666666"
     borderopacity="1"
     objecttolerance="10"
     gridtolerance="10"
     guidetolerance="10"
     inkscape:pageopacity="0"
     inkscape:pageshadow="2"
     inkscape:window-width="1920"
     inkscape:window-height="986"
     id="namedview21"
     showgrid="false"
     inkscape:zoom="0.58271606"
     inkscape:cx="1010.3381"
     inkscape:cy="404.43879"
     inkscape:window-x="-11"
     inkscape:window-y="-11"
     inkscape:window-maximized="1"
     inkscape:current-layer="svg19" />
  <defs
     id="defs5">
    <clipPath
       id="a">
      <path
         d="m 331.83984,376.73828 h 113.25 V 456 h -113.25 z m 0,0"
         id="path2"
         inkscape:connector-curvature="0" />
    </clipPath>
  </defs>
  <path
     d="m 332.18556,-279.10056 h 112.25853 v 81.28605 H 332.18556 Z"
     id="path11"
     inkscape:connector-curvature="0"
     style="fill:#ffffff;stroke-width:0.0982769" />
  <g
     clip-path="url(#a)"
     id="g15"
     transform="matrix(1.3686534,0,0,1.5782984,-454.17373,-579.70407)">
    <path
       d="m 442.61719,389.20703 c -0.32422,-1.19922 -0.80078,-2.33594 -1.42188,-3.41016 -0.625,-1.07421 -1.3789,-2.05078 -2.25781,-2.92968 -0.87891,-0.875 -1.85938,-1.625 -2.93359,-2.25 -1.07813,-0.6211 -2.21485,-1.09375 -3.41797,-1.41797 -8.79297,-2.39844 -44.19141,-2.39844 -44.19141,-2.39844 0,0 -35.39844,0.0703 -44.19531,2.46875 -1.20313,0.32422 -2.33985,0.79688 -3.41797,1.41797 -1.07422,0.625 -2.05469,1.375 -2.93359,2.25391 -0.87891,0.875 -1.63282,1.85156 -2.25782,2.92578 -0.62109,1.07422 -1.09765,2.21093 -1.42187,3.41015 -2.32813,8.77344 -2.32813,27.1211 -2.32813,27.1211 0,0 0,18.35156 2.39844,27.19531 0.32813,1.19922 0.80078,2.33594 1.42578,3.41016 0.625,1.07421 1.375,2.05078 2.25391,2.92578 0.88281,0.8789 1.85937,1.6289 2.9375,2.2539 1.07422,0.6211 2.21484,1.09375 3.41406,1.41797 C 353.06641,456 388.46484,456 388.46484,456 c 0,0 35.39844,0 44.19532,-2.39453 1.20312,-0.32422 2.33984,-0.80078 3.41796,-1.42188 1.07422,-0.62109 2.05469,-1.37109 2.9336,-2.25 0.8789,-0.8789 1.63281,-1.85547 2.25781,-2.92968 0.62109,-1.07422 1.09766,-2.21094 1.42188,-3.40625 2.39843,-8.77735 2.39843,-27.19922 2.39843,-27.19922 0,0 -0.0703,-18.34766 -2.47265,-27.19141 z m 0,0"
       id="path13"
       inkscape:connector-curvature="0"
       style="fill:#545454" />
  </g>
  <path
     d="M 61.979695,104.28479 102.17319,77.49688 61.979695,50.71513 Z m 0,0"
     id="path17"
     inkscape:connector-curvature="0"
     style="fill:#ffffff;stroke-width:1.46974266" />
</svg>
